<svg id="Capa_1" xmlns="http://www.w3.org/2000/svg" viewBox="-446 70.9 512 554.8">
  <style>
    .st0{fill:#FFFFFF;}
  </style>
  <path class="st0" d="M-446 412.3H66v-56.9h-512v56.9zm0-142.3H66v-56.9h-512V270zm0-199.1v56.9H66V70.9h-512z" id="menu"/>
  <path class="st0" d="M-392.5 624l-30.4-99.1h-.8c1.1 20.2 1.6 33.6 1.6 40.4v58.8H-446V497.6h36.4l29.9 96.6h.5l31.7-96.6h36.4V624H-336v-59.8c0-2.8 0-6.1.1-9.8s.5-13.5 1.2-29.4h-.8l-32.5 99h-24.5z"/>
  <path class="st0" d="M-206.7 624h-72.7V497.6h72.7v22h-45.9v27.7h42.7v22h-42.7v32.6h45.9V624z"/>
  <path class="st0" d="M-68.4 624h-34l-54.9-95.6h-.8c1.1 16.9 1.6 28.9 1.6 36.1V624h-23.9V497.6h33.7l54.8 94.6h.6c-.9-16.4-1.3-28-1.3-34.8v-59.8h24.1l.1 126.4z"/>
  <path class="st0" d="M66 497.6v81.8c0 9.3-2.1 17.5-6.3 24.5-4.2 7-10.2 12.4-18.1 16.2-7.9 3.7-17.2 5.6-28 5.6-16.2 0-28.8-4.2-37.8-12.5s-13.5-19.7-13.5-34.2v-81.4H-11V575c0 9.7 2 16.9 5.9 21.4 3.9 4.6 10.4 6.8 19.4 6.8 8.7 0 15.1-2.3 19-6.9 3.9-4.6 5.9-11.8 5.9-21.6v-77.1H66z"/>
</svg>
