<?xml version="1.0" encoding="utf-8"?>
<!-- Generator: Adobe Illustrator 19.0.0, SVG Export Plug-In . SVG Version: 6.00 Build 0)  -->
<svg version="1.1" id="Layer_1" xmlns="http://www.w3.org/2000/svg" xmlns:xlink="http://www.w3.org/1999/xlink" x="0px" y="0px"
	 viewBox="-197.4 107.8 460.8 378.5" style="enable-background:new -197.4 107.8 460.8 378.5;" xml:space="preserve">
<style type="text/css">
	.st0{fill:none;}
</style>
<g>
	<path class="st0" d="M258.7,244.5c-6.4-6.4-16.7-6.4-23,0L33.2,447.3l-202.8-202.8c-6.4-6.4-16.7-6.4-23,0c-6.4,6.4-6.4,16.7,0,23
		L21.3,481.5c3.2,3.2,7.1,4.8,11.5,4.8c4,0,8.3-1.6,11.5-4.8l213.9-213.9C265,261.2,265,250.9,258.7,244.5L258.7,244.5z"/>
</g>
<g>
	<path class="st0" d="M258.7,112.5c-6.4-6.4-16.7-6.4-23,0L33.2,315.3l-202.8-202.8c-6.4-6.4-16.7-6.4-23,0s-6.4,16.7,0,23
		L21.3,349.5c3.2,3.2,7.1,4.8,11.5,4.8c4,0,8.3-1.6,11.5-4.8l213.9-213.9C265,129.2,265,118.9,258.7,112.5L258.7,112.5z"/>
</g>
</svg>
