<?xml version="1.0" encoding="utf-8"?>
<!-- Generator: Adobe Illustrator 19.0.0, SVG Export Plug-In . SVG Version: 6.00 Build 0)  -->
<svg version="1.1" id="Layer_1" xmlns="http://www.w3.org/2000/svg" xmlns:xlink="http://www.w3.org/1999/xlink" x="0px" y="0px"
	 viewBox="-249 91.5 460.8 378.5" style="enable-background:new -249 91.5 460.8 378.5;" xml:space="preserve">
<style type="text/css">
	.st0{fill:none;}
</style>
<g>
	<path class="st0" d="M9.7,336c-6.4-6.4-16.7-6.4-23,0l-202.5,202.8L-418.6,336c-6.4-6.4-16.7-6.4-23,0c-6.4,6.4-6.4,16.7,0,23
		l213.9,214c3.2,3.2,7.1,4.8,11.5,4.8c4,0,8.3-1.6,11.5-4.8L9.2,359.1C16,352.7,16,342.4,9.7,336L9.7,336z"/>
</g>
<g>
	<path class="st0" d="M9.7,204c-6.4-6.4-16.7-6.4-23,0l-202.5,202.8L-418.6,204c-6.4-6.4-16.7-6.4-23,0s-6.4,16.7,0,23l213.9,214
		c3.2,3.2,7.1,4.8,11.5,4.8c4,0,8.3-1.6,11.5-4.8L9.2,227.1C16,220.7,16,210.4,9.7,204L9.7,204z"/>
</g>
</svg>
