<?xml version="1.0" encoding="utf-8"?>
<!-- Generator: Adobe Illustrator 19.0.0, SVG Export Plug-In . SVG Version: 6.00 Build 0)  -->
<svg version="1.1" id="Capa_1" xmlns="http://www.w3.org/2000/svg" xmlns:xlink="http://www.w3.org/1999/xlink" x="0px" y="0px"
	 viewBox="-223 25 512 638.4" style="enable-background:new -223 25 512 638.4;" xml:space="preserve">
<style type="text/css">
	.st0{fill:#FFFFFF;}
</style>
<g>
	<g id="menu">
		<path class="st0" d="M-223,451.7h512v-56.9h-512V451.7z M-223,309.4h512v-56.9h-512V309.4z M-223,110.3v56.9h512v-56.9H-223z"/>
	</g>
</g>
<g>
	<path class="st0" d="M-169.5,663.4l-30.4-99.1h-0.8c1.1,20.2,1.6,33.6,1.6,40.4v58.8H-223V537h36.4l29.9,96.6h0.5l31.7-96.6h36.4
		v126.4H-113v-59.8c0-2.8,0-6.1,0.1-9.8s0.5-13.5,1.2-29.4h-0.8l-32.5,99H-169.5z"/>
	<path class="st0" d="M16.3,663.4h-72.7V537h72.7v22h-45.9v27.7h42.7v22h-42.7v32.6h45.9V663.4z"/>
	<path class="st0" d="M154.6,663.4h-34l-54.9-95.6h-0.8c1.1,16.9,1.6,28.9,1.6,36.1v59.5H42.6V537h33.7l54.8,94.6h0.6
		c-0.9-16.4-1.3-28-1.3-34.8V537h24.1V663.4z"/>
	<path class="st0" d="M289,537v81.8c0,9.3-2.1,17.5-6.3,24.5c-4.2,7-10.2,12.4-18.1,16.2c-7.9,3.7-17.2,5.6-28,5.6
		c-16.2,0-28.8-4.2-37.8-12.5c-9-8.3-13.5-19.7-13.5-34.2V537h26.7v77.4c0,9.7,2,16.9,5.9,21.4c3.9,4.6,10.4,6.8,19.4,6.8
		c8.7,0,15.1-2.3,19-6.9c3.9-4.6,5.9-11.8,5.9-21.6V537H289z"/>
</g>
</svg>
